<svg xmlns="http://www.w3.org/2000/svg" viewBox="0 0 528.27 394.84"><defs><style>.cls-1{fill:#fe5000;}.cls-2{fill:#fcfcfc;}.cls-3{fill:#fff;}.cls-3,.cls-4{stroke:#1d1d1b;stroke-miterlimit:10;stroke-width:10px;}.cls-4{fill:none;}.cls-5{fill:#1d1d1b;}</style></defs><title>cerrado</title><g id="Capa_2" data-name="Capa 2"><g id="Capa_1-2" data-name="Capa 1"><rect class="cls-1" y="108.99" width="528.27" height="285.85" rx="33.97"/><path class="cls-2" d="M84.05,217.44a.23.23,0,0,1,.26.26l1-.26q11.65,0,19.91,5.57,8.72,0,8.72,2a35.65,35.65,0,0,1,8.47,9.45v1.47l-9,4.58a8.61,8.61,0,0,1-3.63,1.47h-2.42q-5.46-7.62-9.93-8.73a40.18,40.18,0,0,0-4.62-1.68q-4.29,0-9.94,2.89v.26c1.79,0,2.68.16,2.68.48Q79,241,79,244.35c-.52.61-1,2.22-1.43,4.84H72.65a.48.48,0,0,0-.47.51c0,.22.24.45.73.7H77q.36,0,1.2,6.08a18.64,18.64,0,0,0,5.1,8.73l-.48.22H80.17v.51q3.22,3.15,10.66,4.84c1.84,0,4.51-.74,8-2.2a9.27,9.27,0,0,0,7.52-3.15h.22V265h-2.42v-.22a31.72,31.72,0,0,1,3.15-4.36h2.9q.51,0,8.5,4.36c3.4,0,5.74.72,7,2.16v.26a5.38,5.38,0,0,0-1,1.21l-1.69-.26q-1.57,0-4.36,4.84a10.08,10.08,0,0,1-3.89.51h-.47c-.25,0-.49.24-.73.7h3.15v.73q-7.74,7.19-13.09,8A19.37,19.37,0,0,1,95,284.82h-5.1a33.87,33.87,0,0,1-23.53-9.42,4.51,4.51,0,0,0-3.63-1.25,7.9,7.9,0,0,1-.95.26c-.66-.25-1-.49-1-.74a.48.48,0,0,1,.51-.47,1.55,1.55,0,0,1,.7.25l1.46-.25h.48v-.26q-4.36-6-4.36-7.26v-.25H62l1.21-.22A36.9,36.9,0,0,1,60,252.12H56.93v-.73h2.64a.42.42,0,0,0,.47-.48c0-.34-.16-.51-.47-.51H55.2a.42.42,0,0,1-.47-.48v-.73a3.29,3.29,0,0,0,1.46-.22l.48.22q3.63,0,3.63-1a29.9,29.9,0,0,1,3.89-12.86v-.22a.42.42,0,0,0-.48-.48H61.29l-.51-.26q4.35-7.69,9.93-10.66a.42.42,0,0,0-.48-.48H65.39V223c1.89-1.68,5.28-3.22,10.2-4.61a40.09,40.09,0,0,1,7-.7h.48A1.73,1.73,0,0,0,84.05,217.44ZM68.29,251.39v.73H69q.48,0,.48-.51l-.48-.22ZM94,265h2.2c.31.05.47.21.47.48q-3,2.67-4.36,2.67H90.36v-.47C91,267.63,92.18,266.73,94,265Z"/><path class="cls-2" d="M132.51,217.44h35.27c.22,0,.46.25.73.74v8.46c0,.22.24.47.73.74h1a2,2,0,0,0,1-.26c.81.22,1.21.46,1.21.73v.52a.42.42,0,0,1-.48.47h-1.24v1.25a.46.46,0,0,1-.52.51H153.11q-2.6,0-7.91.26v2.23c.05.32.2.48.47.48h2.24q.51.08.51.51v10.67H170q.48.08.48.48V249c0,.32-.9.56-2.71.73l-.52-.26-1.46.26a2,2,0,0,0-.77-.26l-.26,1.25v4.22l.26,2.49-.74.51H143.18c0,.56-.57.89-1.72,1l-1.51-.26h-.47c-.34.05-.51.22-.51.52v.22h1.5l2.49.25v8.22c0,.88.49,1.36,1.47,1.46a2.09,2.09,0,0,1,0,2v.26H168c.32,0,.57.83.74,2.49h3.7q.51.07.51.48a.45.45,0,0,1-.51.51h-2.71l-1.25.26v9.42H127.82a.23.23,0,0,1-.26-.26l-.51.26h-1.46c-.25,0-.51-.25-.77-.74v-.51c0-.17.08-.26.25-.26l-.25-.47v-6l-1.25-.22h-2.2a.45.45,0,0,1-.51-.51v-.51a.49.49,0,0,1,.51-.48q4.14-.25,6.45-.26h1v-.47l-2.49-.26h-1c-.34,0-.51-.24-.51-.73l.25-.52a1.92,1.92,0,0,1-.25-1c0-.22.5-.46,1.5-.73a2,2,0,0,0,.26-1c0-.7-.59-1.11-1.76-1.2v-8.47l.25-.48-.47-.26h-3.23c-.34,0-.51-.15-.51-.47s.22-.52.51-.52h3q.48,0,.48-.51V250c0-.34.25-.52.77-.52s2.07-.07,4.69-.22V234.08c0-.51-.91-.77-2.72-.77h-.51v-3.95l1.76-1v-.52c0-.32-.17-.47-.51-.47h-3a.45.45,0,0,1-.51-.52v-8.68l.25-.48Q130.07,217.45,132.51,217.44Zm-9.42,29.8h1.25q.48.07.48.48V249a.42.42,0,0,1-.48.47h-1.25c-.34,0-.51-.15-.51-.47v-1.25Q122.69,247.24,123.09,247.24ZM132,274.77h2.23v-.47h-1.76C132.2,274.35,132,274.51,132,274.77Zm26.79.26v1c0,.34.22.51.52.51h3.44a1.82,1.82,0,0,1,.26-.77,1.73,1.73,0,0,1-.26-.73Z"/><path class="cls-2" d="M176.1,217.44c.32,0,.47.09.47.26,2.5-.17,4.33-.26,5.5-.26h17.38q9.45,0,12.68,1.73a4.8,4.8,0,0,1,2.75,1.5,1.92,1.92,0,0,0-.26,1q3.88,1.86,6.71,8.21a27.71,27.71,0,0,1,1.76,7.95c0,.61-.24,2.61-.73,6q1.47,0,1.47.51a21.4,21.4,0,0,1-9,11.44l-3.74,1.46v.26a30.55,30.55,0,0,1,2.75,4,2.72,2.72,0,0,1-1.24.47l.25.52v.25c-3,.15-5,.22-6,.22v.26q.07.51.51.51h6.19l2.24,2.72a3.15,3.15,0,0,1,3.23,2.49v.25c-.83,0-1.25.18-1.25.52q7.74,11.1,7.74,11.44c-.66.12-1,.28-1,.47a13,13,0,0,1,1.72,3l-.48.22H213.38c-1.39,0-3.63-.08-6.71-.22a26.3,26.3,0,0,1-2-3,2.38,2.38,0,0,1,1.25-.26v-.21q-7.23-11-7.22-12h1v-.51a3,3,0,0,0-3-2.45c-1.3-1.67-2.3-2.5-3-2.5h-4.47V265a.2.2,0,0,1-.22.22l.22.51v11.44H192q.51.08.51.51t-.51.48h-2.75c0,.83-.08,1.25-.22,1.25l.22.51v3a2.32,2.32,0,0,1-.22,1,2,2,0,0,1,.22.77l-.48.22H178.59c-1.66,0-4.15-.08-7.48-.22v-6c0-.34.22-.51.52-.51h2.71v-.73h-2.71a.46.46,0,0,1-.52-.52V264l-1.24-.26h-5a.46.46,0,0,1-.52-.51l.52-.26q6.2-.1,6.19-.47c0-.52.17-.77.52-.77a1.68,1.68,0,0,0,.73.25l.26-.47V244.53c0-.32.2-.47.47-.47h1.25l.26-1.51a1.76,1.76,0,0,0-.74-.25c-1.46.17-2.3.25-2.49.25a1.75,1.75,0,0,0-2-2v-1.24l1.72-1V221.66l1.51-1v-2.49c0-.32.2-.48.47-.48h1.76A2.4,2.4,0,0,0,176.1,217.44Zm-1,25.11v.26h.48v-.26Zm1.24,0v.26h.48v-.26Zm6.2,20.38v.26q.07.51.51.51h4.48c.31,0,.47-.17.47-.51v-.26Zm6.71-32.29a.2.2,0,0,1-.22.22c.14,1.66.22,2.91.22,3.74v1.5c0,.17-.08.26-.22.26l.22.47v.26c0,1.49-.66,2.24-2,2.24v1.5c1.32.1,2,.34,2,.73H189a2.12,2.12,0,0,1,.22.74h6v.51H193l-1,1.25h-1.25v2.49h7.7q5,0,6.74-2.49c1.64,0,2.46-.59,2.46-1.76h-2.24l-.47-.22a11.8,11.8,0,0,0,.47-3v-2q0-2.59-4.47-5.72c-.36-.34-2-.58-4.95-.73l-.51.22-.51-.22a.19.19,0,0,0-.22.22,7.25,7.25,0,0,0-1-.22c-1.44.15-2.26.22-2.46.22A14,14,0,0,0,189.26,230.64Zm.77,31.3-.52-.25c0,.34-.15.51-.47.51a2.08,2.08,0,0,1,.22.73c1.66-.14,2.91-.22,3.74-.22h.25l.48.22,1-1.72c-.66-1.49-1.08-2.24-1.25-2.24h-2.24c-.34,0-.59,1-.77,3Zm12.42,19.65h.48a1.67,1.67,0,0,0,.51,1v.51c-.22,0-.55-.44-1-1.24Zm1.73,2.49h.25v.52h-.25Zm19.17-41.78h.73v.51h-.73Zm1.72,0h.77v.51h-.77Zm1.25,0h2.23v.51h-2.23Z"/><path class="cls-2" d="M232.7,217.44c.31,0,.47.09.47.26,2.5-.17,4.33-.26,5.5-.26h17.38q9.45,0,12.68,1.73a4.8,4.8,0,0,1,2.75,1.5,1.92,1.92,0,0,0-.26,1q3.88,1.86,6.71,8.21a28.06,28.06,0,0,1,1.76,7.95c0,.61-.24,2.61-.73,6,1,0,1.46.17,1.46.51a21.33,21.33,0,0,1-8.94,11.44l-3.74,1.46v.26a30.55,30.55,0,0,1,2.75,4,2.71,2.71,0,0,1-1.25.47l.26.52v.25q-4.51.23-6,.22v.26c.05.34.22.51.52.51h6.19l2.24,2.72a3.13,3.13,0,0,1,3.22,2.49v.25c-.83,0-1.24.18-1.24.52q7.73,11.1,7.73,11.44c-.66.12-1,.28-1,.47a12.84,12.84,0,0,1,1.73,3l-.48.22H270c-1.4,0-3.63-.08-6.71-.22a26.3,26.3,0,0,1-2-3,2.38,2.38,0,0,1,1.25-.26v-.21q-7.23-11-7.23-12h1v-.51a3,3,0,0,0-3-2.45c-1.29-1.67-2.29-2.5-3-2.5h-4.47V265a.2.2,0,0,1-.22.22l.22.51v11.44h2.75q.51.08.51.51t-.51.48h-2.75c0,.83-.08,1.25-.22,1.25l.22.51v3a2.32,2.32,0,0,1-.22,1,2,2,0,0,1,.22.77l-.48.22H235.19c-1.66,0-4.16-.08-7.48-.22v-6q.07-.51.51-.51h2.72v-.73h-2.72a.45.45,0,0,1-.51-.52V264l-1.25-.26h-4.94a.45.45,0,0,1-.52-.51l.52-.26q6.19-.1,6.19-.47c0-.52.17-.77.51-.77a1.76,1.76,0,0,0,.74.25l.25-.47V244.53c0-.32.21-.47.48-.47h1.25l.25-1.51a1.68,1.68,0,0,0-.73-.25c-1.47.17-2.3.25-2.49.25a1.75,1.75,0,0,0-2-2v-1.24l1.72-1V221.66l1.5-1v-2.49q.07-.48.48-.48h1.76A2.4,2.4,0,0,0,232.7,217.44Zm-1,25.11v.26h.47v-.26Zm1.24,0v.26h.48v-.26Zm6.2,20.38v.26q.07.51.51.51h4.47q.48,0,.48-.51v-.26Zm6.71-32.29a.2.2,0,0,1-.22.22c.14,1.66.22,2.91.22,3.74v1.5c0,.17-.08.26-.22.26l.22.47v.26c0,1.49-.66,2.24-2,2.24v1.5c1.32.1,2,.34,2,.73h-.22a2.12,2.12,0,0,1,.22.74h6v.51H249.6l-1,1.25h-1.25v2.49h7.7q5,0,6.74-2.49c1.64,0,2.46-.59,2.46-1.76H262l-.47-.22a11.8,11.8,0,0,0,.47-3v-2q0-2.59-4.47-5.72c-.37-.34-2-.58-5-.73l-.51.22-.52-.22a.2.2,0,0,0-.22.22,7,7,0,0,0-1-.22c-1.44.15-2.26.22-2.46.22A14.17,14.17,0,0,0,245.86,230.64Zm.77,31.3-.52-.25c0,.34-.16.51-.47.51a2.08,2.08,0,0,1,.22.73c1.66-.14,2.9-.22,3.74-.22h.25l.48.22,1-1.72c-.66-1.49-1.07-2.24-1.24-2.24h-2.24c-.34,0-.6,1-.77,3Zm12.42,19.65h.48a1.67,1.67,0,0,0,.51,1v.51c-.22,0-.55-.44-1-1.24Zm1.73,2.49H261v.52h-.25ZM280,242.3h.73v.51H280Zm1.72,0h.77v.51h-.77Zm1.25,0h2.23v.51h-2.23Z"/><path class="cls-2" d="M302.12,217.48h14.63q.44.08,4,10.41l.73.48H324q.66.51,5.94,15.9l1.76,4.95-.51.26h-5.72v.26c0,.88.5,1.37,1.5,1.46l1.5-.22h.22q1.06.56,7,18.84l-.51.26a7.09,7.09,0,0,0-1-.26c-.15,0-.22.09-.22.26l-1.76-.26H330.9a.49.49,0,0,0-.48.52c.88,2.64,1.46,4,1.73,4h5a.49.49,0,0,1,.48.51V275q0,.51-.48.51h-5.46a1.82,1.82,0,0,1-1-.25,2,2,0,0,1-1,.25h-5.2l-1.72-.25-.26.51a.49.49,0,0,0,.51.48h14.88c.49,0,1.57,2.73,3.23,8.21v.25H322.47q-.41,0-3-8.46H306.34a2.34,2.34,0,0,0-2,0q-.51,0-.51-.48c.17,0,.25-.09.25-.26,3.06-.17,5.29-.25,6.71-.25h8a.42.42,0,0,0,.47-.48l-.73-.51h-5c-.19,0-.68-.75-1.46-2.24h-2v.26c0,.14.07.8.22,2h-2.24c-.17,0-.74-.75-1.72-2.24H291.93c-.95,0-1.52.66-1.72,2l.48.26h4.21c.34.05.52.22.52.51V275l-3.23,9.71H273.31v-.25l3.48-9.94-7.44-.25q-.51,0-.51-.48c.83-2.66,1.42-4,1.76-4h6.71c1.2,0,2-1.4,2.45-4.21q.45,0,2.5-6.2l2.75-8v-.26h-2.5c-.34-1.54-.4-2.07-.18-1.61-.22-.24,2-.37,6.63-.37q.38-.06,4-10.15l3.49-10.19v-.26h-1.25v-.25a68.06,68.06,0,0,1,4-10.67Zm8,21.59q-2.68,10.41-3.74,10.41h-5.72c-.32,0-.56.5-.73,1.5h1.5c1,.1,1.47.35,1.47.74-1.66,5.1-2.5,7.76-2.5,8l1.25.22,1.76-.22a1.89,1.89,0,0,0,.73.22l1.51-.22a.2.2,0,0,1,.22.22l1.24-.22h4.22c.17,0,.26.07.26.22,1.66-.15,2.49-.39,2.49-.73v-.26a34.05,34.05,0,0,1-2.24-6.45c0-.86-.74-1.34-2.23-1.47a2,2,0,0,0-.52-1.24c.08-.34.25-.52.52-.52h4.21q-1.25-4.54-3.22-10.15Z"/><path class="cls-2" d="M341.93,217.44h14.15q15.15,0,23.65,7a38.91,38.91,0,0,1,9.2,10.19h3.48q4.47,7.62,4.47,13.16v.51a2.67,2.67,0,0,1-.51.73l-1.25-.22h-2V250a.45.45,0,0,1-.51.52h-2.71v2h2.71q.51.07.51.51v.48q0,5.41-4.21,14.18c-.34,0-.52.22-.52.52v.22h4.73a.48.48,0,0,1,.48.51,2.92,2.92,0,0,1-1.47.47H387.9l-3.7,4.51h-4.73c-2.49,0-3.74.41-3.74,1.21v.26h6.45c.34.05.52.22.52.51-.27,0-1.26.75-3,2.24q-9.39,6.7-18.15,6.71H334.2v-8.95q0-.51-.48-.51h-.51q-6.45,0-6.45-.73v-.26a.49.49,0,0,1,.51-.48h6.45q.48,0,.48-.51v-4c1.1,0,2.76-.07,5-.22v-.51c-2.24-.17-3.82-.25-4.72-.25l-.26-.48V253.26c0-.25-.25-.5-.73-.77h-2.24a.42.42,0,0,1-.48-.48v-1c0-.39.66-.65,2-.77l.48.26L335,249c2.15,0,3.22-.24,3.22-.73V235.11c0-.39-1.33-.73-4-1v-15.9l.26-.48Q339.44,217.45,341.93,217.44Zm-13.45,32.81H329c.35.05.52.22.52.51V252c0,.32-.17.48-.52.48h-1v-1.73Q328.08,250.25,328.48,250.25ZM333,234.6h.48q.51.08.51.51v.48c0,.29-.42.54-1.25.73l-.25-.48v-.73Q332.55,234.6,333,234.6Zm19.13-3.23v2.71c.05.35.21.52.48.52h3a.48.48,0,0,1,.47.51v13.16c0,.12-.24.37-.73.73l-1.25-.22h-1.5l-1,1.73h-2.24a.48.48,0,0,0-.47.51v1.47h2.71c.15,0,.4.25.77.77l-.26,1.24v9.68a2,2,0,0,1,0,2v1l.26,1.25h3a2.09,2.09,0,0,0,2,0l.26.51-1,.47c-.35,0-.52-.07-.52-.22l-1.72.22h-2l-.26,1.25v.51c.05.35.21.52.48.52h5.24q2.43,0,8-2.28c2.49-.14,4.31-.22,5.46-.22l.26-.51c-1.67-.17-2.91-.25-3.74-.25h-.48v-.48A19,19,0,0,0,374,258.2l1.24-5.2-.77-.51h-2.23a.42.42,0,0,1-.48-.48v-1c0-.24.25-.5.74-.77.17,0,.25.09.25.26,1.54,0,2.53-.5,3-1.51h1.5l1.73-.22v-.51q-.91-7.34-7.19-13.42-5.46-.43-6.74-1.76a14.53,14.53,0,0,0-6.71-2.23H352.6A.49.49,0,0,0,352.12,231.37ZM368.29,249H371c.34.05.52.22.52.52v.25c0,.32-.18.48-.52.48h-2.23a.42.42,0,0,1-.48-.48Z"/><path class="cls-2" d="M435.23,217.55a27.08,27.08,0,0,1,14.44,3.63,2.08,2.08,0,0,1-1,.22v.48q.89,0,6.71,4.58a5.34,5.34,0,0,1,2.9.95H461l1.18.26v.26a.42.42,0,0,1-.48.47h-1.21c-.14,0-.22-.08-.22-.25a2.3,2.3,0,0,1-1.21.25v.22q5.46,6.09,8.18,16.39l-.7.47h-5.79v.26a19,19,0,0,1,4.1.22,2.58,2.58,0,0,1,1.21-.22h.48c.63,0,1,1.53,1,4.58q.07.48.48.48h2.42a.19.19,0,0,1,.22.22l.51-.22h.22c1,.1,1.47.33,1.47.7a32.75,32.75,0,0,1-4.58,16.16l-.48.22h-4.58l-1,.74h-2.38c-.32,0-.48.2-.48.47,1.76,0,2.64.09,2.64.26q-5.61,9.24-17.34,13.71a42.44,42.44,0,0,1-10.37,1.46H431.6a9.74,9.74,0,0,1-3.85-.51,1.81,1.81,0,0,1-.74.26q-10.59-1.8-16.6-7a43,43,0,0,1-7.48-7.92,1.76,1.76,0,0,0-.95-.26h-2.17v-.47h2.39c0-.49.17-.74.51-.74h3.12l1.21-.22a32.63,32.63,0,0,1-4.11-13v-.73l.26-.48c.14,0,.22.09.22.26,2.42-.17,4.19-.26,5.31-.26h3.59v-.26a.41.41,0,0,0-.47-.47h-8.65c-.2,0-.6-.57-1.21-1.69h-4.11a.42.42,0,0,1-.47-.48c0-.31.64-.56,1.94-.73v-.95a2,2,0,0,1-.73-.22,2.12,2.12,0,0,1-.74.22,2.07,2.07,0,0,1-.22-.74,36.28,36.28,0,0,1,6.23-16.82q2.13-2.9,3.89-2.9c2.08,0,3.12-.24,3.12-.73a2.91,2.91,0,0,0-1.43-.48h-.26l-1.21.22-.22-.47.22-.48c-.64,0-.95-.16-.95-.48a54.07,54.07,0,0,1,6.74-4.58h2.64Q422.87,217.56,435.23,217.55Zm-36.62,35.16h2.63c.32,0,.48.2.48.47l-.48.26h-2.63Zm1.42,7.22h1.47l.22,1.21-.7.47h-.73c-.32,0-.56-.47-.73-1.43Zm15.18-12.28v.47l1.47,1v.48c0,.32-.17.48-.52.48H415v.73h4.33c.26,0,.51.56.73,1.69,3.44.14,6,.22,7.7.22h1.9v.47c0,.35-.16.52-.47.52a1.6,1.6,0,0,0-.7-.26.23.23,0,0,0-.26.26l-1.21-.26q-.87,0-6.74.26v1.17a20.27,20.27,0,0,0,6,10.63c1.78,1.22,2.68,1.94,2.68,2.16l-.48.22h-3.37l.22.48v.26H423.9v.47h2.89a26.66,26.66,0,0,0,5.76,1.21,23.24,23.24,0,0,0,4.58-.73.42.42,0,0,0-.48-.48h-1.2v-.47h2.63c.18,0,1.3-.25,3.38-.74h2.42a1.93,1.93,0,0,0,.95-.22,1.89,1.89,0,0,0,.73.22q4.72-2,8.43-8.91a39,39,0,0,0,1.43-5.53V251.5c0-.27-.79-.5-2.38-.7l-.48.22h-1.68q-1,0-1-4.8l-1.18-.26H440.5v-.48c2.42-.14,4.19-.22,5.32-.22h3.59V245a19.51,19.51,0,0,0-7.22-9.86q-5.46-3.37-8.91-3.37-10.08,0-16.38,10.33A20.5,20.5,0,0,0,415.21,247.65Zm13,9.64h.26c.32,0,.48.21.48.47v.74a.42.42,0,0,1-.48.47h-.26a.41.41,0,0,1-.47-.47v-.74C427.8,257.45,428,257.29,428.22,257.29Zm29.62-3.59-.22.47v.22h.22a.42.42,0,0,1,.48-.47v-.22Z"/><circle class="cls-3" cx="264.13" cy="16.01" r="11.01"/><line class="cls-4" x1="26.77" y1="131.95" x2="257.66" y2="24.92"/><line class="cls-4" x1="501.5" y1="131.95" x2="271.92" y2="23.8"/><circle class="cls-5" cx="28.58" cy="131.11" r="9.18"/><circle class="cls-5" cx="499.72" cy="131.11" r="9.18"/></g></g></svg>