<svg xmlns="http://www.w3.org/2000/svg" viewBox="0 0 538.27 399.14"><defs><style>.cls-1{fill:#fff;}.cls-1,.cls-3{stroke:#1d1d1b;stroke-miterlimit:10;stroke-width:10px;}.cls-2{fill:#fe5000;}.cls-3{fill:none;}.cls-4{fill:#1d1d1b;}</style></defs><title>abierto</title><g id="Capa_2" data-name="Capa 2"><g id="Capa_1-2" data-name="Capa 1"><rect class="cls-1" x="5" y="108.29" width="528.27" height="285.85" rx="33.97"/><path class="cls-2" d="M117.3,216.87h14.93q.44.07,4.07,10.63l.75.48h2.55q.68.53,6.06,16.24l1.79,5.05-.52.27h-5.84v.26c0,.9.51,1.4,1.54,1.49l1.53-.22h.23q1.08.56,7.11,19.23l-.53.26a6.67,6.67,0,0,0-1-.26c-.15,0-.22.09-.22.26l-1.8-.26h-1.27a.5.5,0,0,0-.49.53c.9,2.69,1.49,4,1.76,4H153a.5.5,0,0,1,.49.52v.23c0,.35-.17.52-.49.52h-5.58a1.92,1.92,0,0,1-1-.26,2,2,0,0,1-1,.26h-5.32l-1.76-.26-.26.52a.5.5,0,0,0,.53.49h15.19c.5,0,1.59,2.79,3.29,8.38v.26h-19q-.41,0-3-8.64H121.6a2.21,2.21,0,0,1-1-.23,2.24,2.24,0,0,1-1,.23c-.35,0-.53-.16-.53-.49.18,0,.27-.08.27-.26,3.11-.17,5.4-.26,6.84-.26h8.12a.43.43,0,0,0,.49-.49l-.75-.52h-5.09c-.2,0-.7-.76-1.49-2.28h-2v.26c0,.15.07.82.22,2h-2.28c-.18,0-.76-.76-1.76-2.28H106.89c-1,0-1.56.67-1.76,2l.49.26h4.3c.35.05.53.22.53.52v.23l-3.3,9.91H87.88v-.26l3.56-10.14-7.6-.26c-.35,0-.52-.16-.52-.49q1.28-4.08,1.8-4.08H92c1.23,0,2.06-1.43,2.51-4.3q.45,0,2.54-6.32l2.81-8.12v-.27H97.28c-.35-1.57-.42-2.12-.19-1.64q-.34-.37,6.77-.38.38-.08,4-10.36l3.56-10.4v-.27h-1.27V228a70.59,70.59,0,0,1,4.07-10.89Zm8.12,22q-2.74,10.62-3.82,10.63h-5.84q-.48,0-.75,1.53h1.54c1,.1,1.49.35,1.49.75q-2.54,7.81-2.54,8.12l1.27.22,1.8-.22a1.91,1.91,0,0,0,.75.22l1.53-.22a.19.19,0,0,1,.22.22l1.28-.22h4.3c.17,0,.26.07.26.22q2.55-.23,2.55-.75v-.26a34.05,34.05,0,0,1-2.29-6.58c0-.88-.76-1.37-2.28-1.5a2,2,0,0,0-.52-1.27c.07-.35.25-.53.52-.53h4.3q-1.26-4.64-3.29-10.36Z"/><path class="cls-2" d="M140.31,258.37q.48.08.48.48v.26a.43.43,0,0,1-.48.49c-.35,0-.53-.16-.53-.49v-.26A.5.5,0,0,1,140.31,258.37Zm19.23-41.54H182.1q14,0,19.76,9.88a29.11,29.11,0,0,1-3.07.49,29.15,29.15,0,0,1,2,6.58h2.55c.35,0,.52.25.52.75h3c.33.08.49.25.49.52v1c0,.35-.16.53-.49.53a.23.23,0,0,1-.26-.26.23.23,0,0,0-.26.26l-1.24-.26h-1q0,9.39-7.82,14.18V251q10.1,4.45,10.1,15.72v2h.26c.23,0,1.07-.09,2.55-.26l.26.52c-.13,2.2-.46,3.3-1,3.3h-1a1.93,1.93,0,0,1-1-.27c-.57,0-1.34,1.53-2.28,4.57l-2,2-1.76-.26h-.75q-6.93,7.11-14.18,7.11H148.17a.47.47,0,0,1-.53-.53v-6.06c.05-.35.23-.52.53-.52h2.5c.35,0,.53-.16.53-.49v-.52q0-.75-.27-.75l.27-1.27V260.39a.47.47,0,0,0-.53-.53h-1.49c-1.45,0-3.73-.08-6.85-.26l-.26-.49v-.26l.26-.48q4.68-.27,6.85-.27h1.75l.27-1.27V238.09l-.27-1.5a2.47,2.47,0,0,0,.27-1.27v-.79q0-.3-1.8-1.23v-5.84q0-.35,1.53-.75a2,2,0,0,0,.27-.79c0-.52-.09-2.12-.27-4.79.18-2.54.35-3.9.53-4.07Q156.89,216.83,159.54,216.83ZM145.36,227.2h.52v6.32h-.52Zm1.8,0h.48v6.32h-.48Zm13.39,31.17c0,.32-.07.48-.22.48a2,2,0,0,1,.22.75h8.38v-.75l-1.79-.48Zm10.14-27.88h-4.56v2.81a.49.49,0,0,0,.52.48h2.28a2.68,2.68,0,0,1,.75.53l-.26,1.75v8.35c.05.35.22.52.52.52h10.11q5.56-2.24,5.57-6.58v-2h3.07v-.27a1.56,1.56,0,0,0-1.05-1.53l-.48.26c-.18,0-.27-.08-.27-.26l-.48.26h-1.27a2.51,2.51,0,0,0-1.8-1h-2q-3-3.28-4.79-3.29h-5.09c-.15,0-.22-.09-.22-.26Zm.53,29.37h-1.54l-.26,1.8c0,.5.09.75.26.75l-.26,1.27V265a42.15,42.15,0,0,0,.26,4.53,9.05,9.05,0,0,0-.26,2.28l.52.26H185.4q2.06,0,4.52-3-3-.25-3-.75c.58,0,1-1.6,1.28-4.82-1.35-2.37-2.11-3.56-2.29-3.56q-1.86,0-12.42-.26l-1.76.26v-.26Zm-1.54-2.28v.79h2.77q3.78,0,10.14-.27c-.1-.49-.77-.74-2-.74h-4Q174.36,257.36,169.68,257.58Zm18.22.79v1l.27.48,1.75-.26h6.59c.35,0,.52-.16.52-.49v-.26c0-.32-.17-.48-.52-.48Z"/><path class="cls-2" d="M209.76,216.94h17.47c.35,0,.61.93.79,2.77h2.77c.34.08.52.25.52.53l-.79.52a6.67,6.67,0,0,0-1-.26,2,2,0,0,1-1,.26v-.26a1.81,1.81,0,0,1-.74.26v29.9c0,.4.67.65,2,.75a1.91,1.91,0,0,1,1-.27,2.52,2.52,0,0,0,.52.75v.79c0,.22-.26.47-.79.75H229c-.53,0-.79-.09-.79-.27l-1.23.27h-2.55c-.35,0-.52.22-.52.52v1c.05.33.22.49.52.49h5.32v17.73a1.9,1.9,0,0,0,.26,1,1.57,1.57,0,0,1-1.54,1.28c0-.18-.08-.27-.26-.27l-.22.53v7.33c0,.35.21.53.48.53a1.93,1.93,0,0,1,1-.27,4.1,4.1,0,0,1,.53,2l-.53.26H218.36q-2.13,0-6.81-.26v-1.5l-1.79-1c0-.18-.09-.26-.27-.26l.27-1.8v-1.5a1.81,1.81,0,0,0-.27-1,1.91,1.91,0,0,0,.27-1V276c0-.32-.76-.75-2.29-1.27a1.89,1.89,0,0,1-.26-.75c.28-.7.54-1.05.79-1.05h1q.45,0,.75,2.28H211c.35,0,.52-.16.52-.48V256a.46.46,0,0,0-.52-.52c-3-.18-4.74-.26-5.31-.26l-.27-.49V254c0-.25.25-.51.75-.79.18,0,.26.09.26.27l.53-.27h5.31a.43.43,0,0,0,.49-.48v-.79l-.49-.75-1.79.27H210q-.37,0-.75-.75V221.25l.22-.49a2.88,2.88,0,0,0-1.49-.26V220h1.27v-2.5C209.32,217.12,209.48,216.94,209.76,216.94Zm1.27,3.3c.05.35.22.52.52.52H212a.46.46,0,0,0,.52-.52.46.46,0,0,0-.52-.53h-.49C211.2,219.79,211,220,211,220.24Z"/><path class="cls-2" d="M240.81,216.83h36c.23,0,.47.25.75.75v8.64q0,.34.75.75h1a2,2,0,0,0,1.05-.26q1.23.33,1.23.75V228a.43.43,0,0,1-.49.49h-1.27v1.27a.46.46,0,0,1-.52.52H261.84q-2.65,0-8.08.27v2.28c.05.32.21.49.49.49h2.28c.35,0,.52.22.52.52v10.89h22c.33,0,.49.21.49.48V249c0,.33-.92.58-2.77.75l-.52-.26-1.5.26a2.07,2.07,0,0,0-.79-.26l-.26,1.27v4.3l.26,2.55-.74.52H251.7c0,.58-.58.91-1.76,1l-1.53-.26h-.49c-.35.05-.52.22-.52.52v.23h1.53l2.55.26v8.38q0,1.35,1.5,1.5a2.09,2.09,0,0,1,0,2v.26h24.09q.49,0,.75,2.55h3.78c.35.05.52.21.52.48a.46.46,0,0,1-.52.53h-2.77l-1.27.26v9.61H236a.23.23,0,0,1-.26-.26l-.52.26h-1.5c-.25,0-.51-.25-.78-.74v-.53a.23.23,0,0,1,.26-.26l-.26-.49v-6.1l-1.28-.22h-2.24a.46.46,0,0,1-.52-.52v-.53a.49.49,0,0,1,.52-.48q4.23-.27,6.58-.27h1v-.48l-2.55-.26h-1c-.35,0-.52-.25-.52-.75l.26-.53a1.9,1.9,0,0,1-.26-1q0-.33,1.53-.75a1.94,1.94,0,0,0,.26-1c0-.73-.6-1.14-1.79-1.24v-8.64l.26-.49-.49-.26h-3.29c-.35,0-.52-.16-.52-.49s.22-.52.52-.52h3c.32,0,.49-.17.49-.52V250c0-.35.26-.52.78-.52s2.12-.08,4.79-.23V233.82c0-.52-.92-.79-2.77-.79h-.52v-4l1.8-1v-.52c0-.33-.18-.49-.53-.49h-3a.46.46,0,0,1-.52-.52v-8.87l.26-.49Q238.31,216.83,240.81,216.83Zm-9.61,30.42h1.27c.32.05.49.22.49.49V249a.43.43,0,0,1-.49.49H231.2c-.35,0-.53-.16-.53-.49v-1.27C230.75,247.42,230.92,247.25,231.2,247.25Zm9.13,28.1h2.28v-.48h-1.8Q240.33,274.95,240.33,275.35Zm27.35.27v1c.05.35.23.52.52.52h3.52a1.88,1.88,0,0,1,.26-.79,1.81,1.81,0,0,1-.26-.74Z"/><path class="cls-2" d="M285.31,216.83c.32,0,.48.09.48.26,2.55-.17,4.42-.26,5.61-.26h17.74q9.66,0,12.95,1.76a5,5,0,0,1,2.8,1.53,2,2,0,0,0-.26,1q4,1.92,6.85,8.39a28.46,28.46,0,0,1,1.8,8.12q0,.93-.75,6.1c1,0,1.49.17,1.49.52a21.77,21.77,0,0,1-9.13,11.67l-3.81,1.5v.26a32,32,0,0,1,2.8,4.08,2.77,2.77,0,0,1-1.27.49l.26.52V263c-3.06.15-5.1.23-6.1.23v.26c.05.35.23.52.53.52h6.32l2.28,2.77a3.21,3.21,0,0,1,3.3,2.55v.26c-.85,0-1.27.17-1.27.52q7.89,11.34,7.89,11.68c-.67.12-1,.28-1,.48a13.11,13.11,0,0,1,1.76,3.07l-.49.23H323.36q-2.13,0-6.85-.23a26.37,26.37,0,0,1-2-3.07,2.48,2.48,0,0,1,1.27-.26v-.22q-7.36-11.19-7.37-12.2h1v-.52a3,3,0,0,0-3-2.51c-1.32-1.7-2.34-2.55-3.07-2.55h-4.56v1.28c0,.15-.08.22-.23.22l.23.52v11.68h2.81c.34.05.52.22.52.52s-.18.49-.52.49h-2.81c0,.85-.08,1.27-.23,1.27l.23.53v3a2.24,2.24,0,0,1-.23,1,2,2,0,0,1,.23.78l-.49.23h-10.4q-2.55,0-7.63-.23v-6.1c0-.35.22-.52.52-.52h2.77V278h-2.77a.46.46,0,0,1-.52-.52V264.32l-1.28-.27h-5.05a.46.46,0,0,1-.52-.52l.52-.26q6.33-.12,6.33-.49c0-.52.17-.78.52-.78a1.8,1.8,0,0,0,.75.26l.26-.49V244.48c.05-.32.21-.48.49-.48h1.27l.26-1.54a1.8,1.8,0,0,0-.75-.26c-1.49.18-2.34.26-2.54.26a1.79,1.79,0,0,0-2-2v-1.27l1.76-1v-17l1.53-1v-2.54c.05-.32.21-.49.49-.49H284A2.4,2.4,0,0,0,285.31,216.83Zm-1,25.63v.27h.49v-.27Zm1.28,0v.27h.48v-.27Zm6.32,20.81v.26c.05.35.23.52.52.52H297c.32,0,.49-.17.49-.52v-.26Zm6.85-33a.21.21,0,0,1-.23.23c.15,1.69.23,3,.23,3.81v1.54c0,.17-.08.26-.23.26l.23.49v.26c0,1.52-.67,2.28-2,2.28v1.53c1.35.1,2,.35,2,.75h-.23a2.07,2.07,0,0,1,.23.75h6.1v.53h-2.28l-1,1.27h-1.28v2.54h7.86c3.42,0,5.71-.85,6.89-2.54,1.67,0,2.5-.6,2.5-1.8h-2.28l-.49-.22a11.6,11.6,0,0,0,.49-3.07v-2q0-2.65-4.56-5.84c-.38-.35-2.06-.6-5.06-.75l-.52.23-.52-.23a.21.21,0,0,0-.23.23,8.47,8.47,0,0,0-1.05-.23c-1.47.15-2.3.23-2.5.23A15.27,15.27,0,0,0,298.74,230.3Zm.78,32L299,262c0,.35-.16.52-.49.52a2,2,0,0,1,.23.75c1.69-.15,3-.23,3.82-.23h.26l.48.23,1.05-1.76c-.67-1.52-1.1-2.28-1.27-2.28H300.8c-.35,0-.61,1-.79,3Zm12.69,20.05h.49a1.68,1.68,0,0,0,.52,1v.53c-.22,0-.56-.45-1-1.27Zm1.76,2.55h.26v.52H314Zm19.57-42.66h.75v.53h-.75Zm1.76,0h.78v.53h-.78Zm1.27,0h2.28v.53h-2.28Z"/><path class="cls-2" d="M343,216.91h42.09a1.9,1.9,0,0,1,1,.26,1.93,1.93,0,0,1,1-.26,1.85,1.85,0,0,1,.53,1l-.26.52a3.66,3.66,0,0,0,1,2V230l-.27.49-1.27-.23h-5.27l-1.54.23a2.61,2.61,0,0,0-1.23-.23l-1.76.23a2.24,2.24,0,0,0-1-.23l-.53.23c-.17,0-.26-.08-.26-.23l-1.23.23h-2.55v8.83c0,.35-.67.61-2,.78,0,.65-.16,1-.48,1h-2.29c-.32.07-.48.25-.48.52s.21.49.48.49h2.55l.48.26-.26,1.27v2.28l1.54,1q0,.5-3,.75v14.86c0,.47-.85.81-2.55,1v.26h3.82c1,.45,1.49.79,1.49,1v19.94a.43.43,0,0,1-.48.49h-10.1q-2.55,0-7.56-.26-.27-4.65-.27-6.81V264.58c-1.52-.33-2.28-.66-2.28-1l-.48.26h-2.29v-.26a.5.5,0,0,1,.53-.49l1.23.26a1.88,1.88,0,0,1,.79-.26V247.93c.05-.33.21-.49.48-.49h2.29v-1c-.85,0-1.28-.16-1.28-.49v-3.29a.46.46,0,0,0-.52-.52h-2.24c-.35,0-.53-.17-.53-.49s.23-.52.53-.52h2.24l1-1.24H353l.27-2.28c0-.32-.09-.49-.27-.49l.27-1.27v-4a1.51,1.51,0,0,0-1-1.5c-.17,0-.26.08-.26.23l-1.27-.23H336.16a.46.46,0,0,1-.53-.52V220.2c-.67,0-1-.16-1-.49v-.26a2,2,0,0,0,0-2,.24.24,0,0,0,.27-.26C338.5,217,341.2,216.91,343,216.91Zm2.24,24.21h.53c.32.07.48.25.48.52a.43.43,0,0,1-.48.49h-.53a.43.43,0,0,1-.48-.49C344.78,241.29,344.94,241.12,345.21,241.12Zm7.07,19.94v.49h.27v-.49Z"/><path class="cls-2" d="M422.41,216.94a27.64,27.64,0,0,1,14.74,3.71,2.13,2.13,0,0,1-1,.22v.49q.9,0,6.85,4.68a5.38,5.38,0,0,1,3,1h2.73l1.2.26v.26a.43.43,0,0,1-.49.49h-1.23c-.15,0-.23-.09-.23-.26a2.35,2.35,0,0,1-1.23.26v.22q5.58,6.22,8.34,16.73l-.71.49h-5.91v.26a19.84,19.84,0,0,1,4.19.22,2.7,2.7,0,0,1,1.24-.22h.48c.65,0,1,1.56,1,4.68q.07.48.48.48h2.47a.21.21,0,0,1,.23.23l.52-.23h.22c1,.1,1.5.34,1.5.71a33.42,33.42,0,0,1-4.68,16.51l-.48.22h-4.68l-1,.75h-2.43c-.33.05-.49.21-.49.48q2.7,0,2.7.27-5.73,9.42-17.7,14a42.9,42.9,0,0,1-10.59,1.5h-2.7a9.89,9.89,0,0,1-3.93-.53,1.72,1.72,0,0,1-.74.27q-10.81-1.85-17-7.15a44,44,0,0,1-7.63-8.08,1.72,1.72,0,0,0-1-.27h-2.21v-.48h2.43c0-.5.18-.75.53-.75h3.18l1.23-.22a33.57,33.57,0,0,1-4.19-13.29v-.75l.26-.48c.15,0,.23.08.23.26,2.47-.18,4.28-.26,5.42-.26H399v-.27a.43.43,0,0,0-.49-.48H389.7c-.2,0-.61-.58-1.23-1.72h-4.19a.43.43,0,0,1-.49-.49q0-.48,2-.75v-1a2,2,0,0,1-.74-.23,2.07,2.07,0,0,1-.75.23,2,2,0,0,1-.23-.75A37.11,37.11,0,0,1,390.41,231q2.18-3,4-3,3.18,0,3.18-.75a3,3,0,0,0-1.46-.49h-.26l-1.23.23-.23-.49.23-.48c-.65,0-1-.17-1-.49a55.72,55.72,0,0,1,6.89-4.68h2.69Q409.8,216.94,422.41,216.94ZM385,252.83h2.69c.32,0,.49.21.49.48l-.49.27H385Zm1.46,7.37H388l.23,1.23-.71.49h-.75c-.33,0-.58-.49-.75-1.46ZM402,247.66v.49l1.49,1v.49c0,.32-.17.48-.52.48h-1.2v.75h4.42c.27,0,.52.58.75,1.72q5.26.22,7.85.23h2v.48c0,.35-.16.53-.49.53a1.47,1.47,0,0,0-.71-.26.23.23,0,0,0-.26.26l-1.23-.26c-.6,0-2.9.08-6.89.26V255a20.66,20.66,0,0,0,6.14,10.85c1.82,1.25,2.73,2,2.73,2.21l-.49.22h-3.44l.22.49v.26h-1.45v.48h2.95a27.13,27.13,0,0,0,5.88,1.24,24,24,0,0,0,4.67-.75.43.43,0,0,0-.48-.49h-1.24v-.48h2.7c.17,0,1.32-.25,3.44-.75h2.47a2.1,2.1,0,0,0,1-.22,2.16,2.16,0,0,0,.75.22q4.83-2.06,8.61-9.09a42,42,0,0,0,1.46-5.65v-2c0-.27-.82-.51-2.44-.71l-.48.23h-1.72c-.68,0-1-1.64-1-4.9l-1.19-.27H427.8v-.48c2.47-.15,4.27-.23,5.42-.23h3.67V245a20.08,20.08,0,0,0-7.37-10.07q-5.58-3.43-9.1-3.44-10.29,0-16.72,10.55A21,21,0,0,0,402,247.66Zm13.28,9.85h.26c.33.05.49.21.49.48v.75a.43.43,0,0,1-.49.49h-.26a.43.43,0,0,1-.49-.49V258C414.82,257.67,415,257.51,415.26,257.51Zm30.23-3.67-.22.48v.23h.22a.44.44,0,0,1,.49-.49v-.22Z"/><circle class="cls-1" cx="269.67" cy="16.01" r="11.01"/><line class="cls-3" x1="32.3" y1="131.95" x2="263.2" y2="24.92"/><line class="cls-3" x1="507.03" y1="131.95" x2="277.45" y2="23.8"/><circle class="cls-4" cx="34.11" cy="131.11" r="9.18"/><circle class="cls-4" cx="505.25" cy="131.11" r="9.18"/></g></g></svg>